<svg width="512" height="512" viewBox="0 0 512 512" fill="none" xmlns="http://www.w3.org/2000/svg" role="img" aria-labelledby="title desc">
  <title id="title">Translate Desk multilingual monochrome icon</title>
  <desc id="desc">A one-color multilingual mark for favicons, watermarking, print, and constrained UI surfaces.</desc>
  <rect x="48" y="48" width="416" height="416" rx="104" fill="#1F6254"/>
  <rect x="108" y="104" width="150" height="234" rx="44" fill="white" fill-opacity="0.96"/>
  <rect x="254" y="158" width="150" height="234" rx="44" fill="white" fill-opacity="0.9"/>
  <circle cx="256" cy="256" r="86" fill="white"/>
  <path d="M170 256H342" stroke="#1F6254" stroke-width="18" stroke-linecap="round" opacity="0.85"/>
  <path d="M256 170C232 192 220 222 220 256C220 290 232 320 256 342" stroke="#1F6254" stroke-width="17" stroke-linecap="round" opacity="0.75"/>
  <path d="M256 170C280 192 292 222 292 256C292 290 280 320 256 342" stroke="#1F6254" stroke-width="17" stroke-linecap="round" opacity="0.75"/>
  <path d="M198 208C214 220 236 228 256 228C276 228 298 220 314 208" stroke="#1F6254" stroke-width="16" stroke-linecap="round" opacity="0.6"/>
  <path d="M198 304C214 292 236 284 256 284C276 284 298 292 314 304" stroke="#1F6254" stroke-width="16" stroke-linecap="round" opacity="0.6"/>
  <path d="M142 152H210" stroke="#1F6254" stroke-width="20" stroke-linecap="round"/>
  <path d="M302 360H370" stroke="#1F6254" stroke-width="20" stroke-linecap="round"/>
  <circle cx="160" cy="212" r="14" fill="#1F6254"/>
  <circle cx="352" cy="302" r="14" fill="#1F6254"/>
  <path d="M128 394C188 434 278 440 350 406" stroke="white" stroke-width="24" stroke-linecap="round"/>
  <path d="M342 362L412 382L366 436" stroke="white" stroke-width="24" stroke-linecap="round" stroke-linejoin="round"/>
</svg>
