<svg width="256" height="256" viewBox="0 0 256 256" fill="none" xmlns="http://www.w3.org/2000/svg" role="img" aria-labelledby="title desc">
  <title id="title">Translate Desk small icon</title>
  <desc id="desc">Small-size icon optimized for taskbar and tray use.</desc>
  <defs>
    <linearGradient id="bg" x1="38" y1="26" x2="218" y2="232" gradientUnits="userSpaceOnUse">
      <stop stop-color="#1F6254"/>
      <stop offset="1" stop-color="#123E38"/>
    </linearGradient>
    <linearGradient id="gold" x1="70" y1="74" x2="190" y2="188" gradientUnits="userSpaceOnUse">
      <stop stop-color="#D9B56C"/>
      <stop offset="1" stop-color="#8A6A2F"/>
    </linearGradient>
  </defs>
  <rect width="256" height="256" rx="56" fill="#F5F7F7"/>
  <rect x="20" y="20" width="216" height="216" rx="52" fill="url(#bg)"/>
  <rect x="52" y="48" width="90" height="124" rx="24" fill="#FBFCFC" stroke="#CFE2DC" stroke-width="7"/>
  <rect x="112" y="82" width="92" height="126" rx="24" fill="#F7FBFA" stroke="#D7E4E0" stroke-width="7"/>
  <path d="M76 78H122" stroke="#1F6254" stroke-width="10" stroke-linecap="round"/>
  <path d="M99 78V126" stroke="#1F6254" stroke-width="10" stroke-linecap="round"/>
  <path d="M142 126H184" stroke="#1F6254" stroke-width="9" stroke-linecap="round"/>
  <path d="M163 104V158" stroke="#1F6254" stroke-width="9" stroke-linecap="round"/>
  <path d="M143 145C158 138 174 128 188 112" stroke="#1F6254" stroke-width="9" stroke-linecap="round"/>
  <path d="M142 112C155 129 172 140 190 148" stroke="#1F6254" stroke-width="9" stroke-linecap="round"/>
  <path d="M72 192C98 208 133 210 162 196" stroke="url(#gold)" stroke-width="12" stroke-linecap="round"/>
  <path d="M158 178L192 188L170 214" stroke="url(#gold)" stroke-width="12" stroke-linecap="round" stroke-linejoin="round"/>
</svg>
